<mxfile host="app.diagrams.net" agent="Mozilla/5.0 (Windows NT 10.0; Win64; x64) AppleWebKit/537.36 (KHTML, like Gecko) Chrome/128.0.0.0 Safari/537.36" version="24.7.8" pages="5">
  <diagram name="Page-1" id="k_FjwHgU_wUAapkFDsfQ">
    <mxGraphModel dx="1050" dy="522" grid="1" gridSize="10" guides="1" tooltips="1" connect="1" arrows="1" fold="1" page="1" pageScale="1" pageWidth="827" pageHeight="1169" math="0" shadow="0">
      <root>
        <mxCell id="0" />
        <mxCell id="1" parent="0" />
        <mxCell id="1fIO2xVu_Nq6ZQmVSiJd-1" value="&lt;font style=&quot;font-size: 16px;&quot; face=&quot;Comic Sans MS&quot;&gt;1&lt;/font&gt;" style="rounded=1;whiteSpace=wrap;html=1;strokeWidth=2;fillWeight=4;hachureGap=8;hachureAngle=45;fillColor=#dae8fc;sketch=1;strokeColor=#6c8ebf;" vertex="1" parent="1">
          <mxGeometry x="370" y="250" width="40" height="40" as="geometry" />
        </mxCell>
        <mxCell id="1fIO2xVu_Nq6ZQmVSiJd-2" value="&lt;font style=&quot;font-size: 16px;&quot; face=&quot;Comic Sans MS&quot;&gt;2&lt;/font&gt;" style="rounded=1;whiteSpace=wrap;html=1;strokeWidth=2;fillWeight=4;hachureGap=8;hachureAngle=45;fillColor=#dae8fc;sketch=1;strokeColor=#6c8ebf;" vertex="1" parent="1">
          <mxGeometry x="470" y="250" width="40" height="40" as="geometry" />
        </mxCell>
        <mxCell id="1fIO2xVu_Nq6ZQmVSiJd-3" value="&lt;font style=&quot;font-size: 16px;&quot; face=&quot;Comic Sans MS&quot;&gt;3&lt;/font&gt;" style="rounded=1;whiteSpace=wrap;html=1;strokeWidth=2;fillWeight=4;hachureGap=8;hachureAngle=45;fillColor=#dae8fc;sketch=1;strokeColor=#6c8ebf;" vertex="1" parent="1">
          <mxGeometry x="570" y="250" width="40" height="40" as="geometry" />
        </mxCell>
        <mxCell id="1fIO2xVu_Nq6ZQmVSiJd-4" value="&lt;font style=&quot;font-size: 16px;&quot; face=&quot;Comic Sans MS&quot;&gt;4&lt;/font&gt;" style="rounded=1;whiteSpace=wrap;html=1;strokeWidth=2;fillWeight=4;hachureGap=8;hachureAngle=45;fillColor=#dae8fc;sketch=1;strokeColor=#6c8ebf;" vertex="1" parent="1">
          <mxGeometry x="670" y="250" width="40" height="40" as="geometry" />
        </mxCell>
        <mxCell id="1fIO2xVu_Nq6ZQmVSiJd-5" value="&lt;font style=&quot;font-size: 16px;&quot; face=&quot;Comic Sans MS&quot;&gt;5&lt;/font&gt;" style="rounded=1;whiteSpace=wrap;html=1;strokeWidth=2;fillWeight=4;hachureGap=8;hachureAngle=45;fillColor=#dae8fc;sketch=1;strokeColor=#6c8ebf;" vertex="1" parent="1">
          <mxGeometry x="770" y="250" width="40" height="40" as="geometry" />
        </mxCell>
        <mxCell id="1fIO2xVu_Nq6ZQmVSiJd-6" value="&lt;font style=&quot;font-size: 16px;&quot; face=&quot;Comic Sans MS&quot;&gt;0&lt;/font&gt;" style="rounded=1;whiteSpace=wrap;html=1;strokeWidth=2;fillWeight=4;hachureGap=8;hachureAngle=45;fillColor=#ffe6cc;sketch=1;strokeColor=#d79b00;" vertex="1" parent="1">
          <mxGeometry x="270" y="250" width="40" height="40" as="geometry" />
        </mxCell>
        <mxCell id="1fIO2xVu_Nq6ZQmVSiJd-7" value="" style="endArrow=classic;html=1;rounded=0;strokeWidth=2;entryX=0.5;entryY=0;entryDx=0;entryDy=0;fillColor=#f8cecc;strokeColor=#FF3333;" edge="1" parent="1" target="1fIO2xVu_Nq6ZQmVSiJd-6">
          <mxGeometry width="50" height="50" relative="1" as="geometry">
            <mxPoint x="290" y="190" as="sourcePoint" />
            <mxPoint x="440" y="250" as="targetPoint" />
          </mxGeometry>
        </mxCell>
        <mxCell id="1fIO2xVu_Nq6ZQmVSiJd-8" value="" style="endArrow=classic;html=1;rounded=0;strokeWidth=2;exitX=1;exitY=0.5;exitDx=0;exitDy=0;entryX=0;entryY=0.5;entryDx=0;entryDy=0;" edge="1" parent="1" source="1fIO2xVu_Nq6ZQmVSiJd-6" target="1fIO2xVu_Nq6ZQmVSiJd-1">
          <mxGeometry width="50" height="50" relative="1" as="geometry">
            <mxPoint x="390" y="300" as="sourcePoint" />
            <mxPoint x="440" y="250" as="targetPoint" />
          </mxGeometry>
        </mxCell>
        <mxCell id="1fIO2xVu_Nq6ZQmVSiJd-9" value="" style="endArrow=classic;html=1;rounded=0;strokeWidth=2;exitX=1;exitY=0.5;exitDx=0;exitDy=0;entryX=0;entryY=0.5;entryDx=0;entryDy=0;" edge="1" parent="1" source="1fIO2xVu_Nq6ZQmVSiJd-1" target="1fIO2xVu_Nq6ZQmVSiJd-2">
          <mxGeometry width="50" height="50" relative="1" as="geometry">
            <mxPoint x="410" y="269.5" as="sourcePoint" />
            <mxPoint x="470" y="269.5" as="targetPoint" />
          </mxGeometry>
        </mxCell>
        <mxCell id="1fIO2xVu_Nq6ZQmVSiJd-10" value="" style="endArrow=classic;html=1;rounded=0;strokeWidth=2;exitX=1;exitY=0.5;exitDx=0;exitDy=0;entryX=0;entryY=0.5;entryDx=0;entryDy=0;" edge="1" parent="1" source="1fIO2xVu_Nq6ZQmVSiJd-2" target="1fIO2xVu_Nq6ZQmVSiJd-3">
          <mxGeometry width="50" height="50" relative="1" as="geometry">
            <mxPoint x="510" y="290" as="sourcePoint" />
            <mxPoint x="570" y="290" as="targetPoint" />
          </mxGeometry>
        </mxCell>
        <mxCell id="1fIO2xVu_Nq6ZQmVSiJd-11" value="" style="endArrow=classic;html=1;rounded=0;strokeWidth=2;exitX=1;exitY=0.5;exitDx=0;exitDy=0;entryX=0;entryY=0.5;entryDx=0;entryDy=0;" edge="1" parent="1" source="1fIO2xVu_Nq6ZQmVSiJd-3" target="1fIO2xVu_Nq6ZQmVSiJd-4">
          <mxGeometry width="50" height="50" relative="1" as="geometry">
            <mxPoint x="620" y="300" as="sourcePoint" />
            <mxPoint x="680" y="300" as="targetPoint" />
          </mxGeometry>
        </mxCell>
        <mxCell id="1fIO2xVu_Nq6ZQmVSiJd-12" value="" style="endArrow=classic;html=1;rounded=0;strokeWidth=2;exitX=1;exitY=0.5;exitDx=0;exitDy=0;entryX=0;entryY=0.5;entryDx=0;entryDy=0;" edge="1" parent="1" source="1fIO2xVu_Nq6ZQmVSiJd-4" target="1fIO2xVu_Nq6ZQmVSiJd-5">
          <mxGeometry width="50" height="50" relative="1" as="geometry">
            <mxPoint x="720" y="310" as="sourcePoint" />
            <mxPoint x="780" y="310" as="targetPoint" />
          </mxGeometry>
        </mxCell>
        <mxCell id="1fIO2xVu_Nq6ZQmVSiJd-13" value="" style="endArrow=classic;html=1;rounded=0;strokeWidth=2;exitX=1;exitY=0.5;exitDx=0;exitDy=0;entryX=0;entryY=0.5;entryDx=0;entryDy=0;" edge="1" parent="1" source="1fIO2xVu_Nq6ZQmVSiJd-5">
          <mxGeometry width="50" height="50" relative="1" as="geometry">
            <mxPoint x="810" y="270" as="sourcePoint" />
            <mxPoint x="870" y="270" as="targetPoint" />
          </mxGeometry>
        </mxCell>
        <mxCell id="1fIO2xVu_Nq6ZQmVSiJd-14" value="&lt;font style=&quot;font-size: 16px;&quot;&gt;&lt;b&gt;NULL&lt;/b&gt;&lt;/font&gt;" style="text;html=1;align=center;verticalAlign=middle;whiteSpace=wrap;rounded=0;fontSize=16;textShadow=1;aspect=fixed;fontFamily=HarmonyOS Sans;" vertex="1" parent="1">
          <mxGeometry x="837" y="243" width="125" height="50" as="geometry" />
        </mxCell>
        <mxCell id="1fIO2xVu_Nq6ZQmVSiJd-16" value="&lt;b&gt;dummy&lt;/b&gt;" style="text;html=1;align=center;verticalAlign=middle;whiteSpace=wrap;rounded=0;fontSize=16;textShadow=1;aspect=fixed;fontFamily=HarmonyOS Sans;" vertex="1" parent="1">
          <mxGeometry x="227.5" y="280" width="125" height="50" as="geometry" />
        </mxCell>
        <mxCell id="1fIO2xVu_Nq6ZQmVSiJd-18" value="&lt;font style=&quot;font-size: 16px;&quot;&gt;&lt;b&gt;head&lt;/b&gt;&lt;/font&gt;" style="text;html=1;align=center;verticalAlign=middle;whiteSpace=wrap;rounded=0;fontSize=16;textShadow=1;aspect=fixed;fontFamily=HarmonyOS Sans;" vertex="1" parent="1">
          <mxGeometry x="327.5" y="280" width="125" height="50" as="geometry" />
        </mxCell>
        <mxCell id="1fIO2xVu_Nq6ZQmVSiJd-19" value="&lt;font style=&quot;font-size: 16px;&quot;&gt;&lt;b&gt;fast,slow&lt;/b&gt;&lt;/font&gt;" style="text;html=1;align=center;verticalAlign=middle;whiteSpace=wrap;rounded=0;fontSize=16;textShadow=1;aspect=fixed;fontFamily=HarmonyOS Sans;" vertex="1" parent="1">
          <mxGeometry x="227.5" y="150" width="125" height="50" as="geometry" />
        </mxCell>
        <mxCell id="1fIO2xVu_Nq6ZQmVSiJd-20" value="&lt;span style=&quot;font-size: 20px;&quot;&gt;&lt;b&gt;初始化哑节点，fast、slow指向哑节点&lt;/b&gt;&lt;/span&gt;" style="text;html=1;align=center;verticalAlign=middle;whiteSpace=wrap;rounded=0;fontSize=16;textShadow=1;aspect=fixed;fontFamily=HarmonyOS Sans;" vertex="1" parent="1">
          <mxGeometry x="390" y="300" width="350" height="140" as="geometry" />
        </mxCell>
        <mxCell id="nbVTloXiVeol-kJUXRQ2-1" value="&lt;b&gt;n = 2&lt;/b&gt;" style="text;html=1;align=center;verticalAlign=middle;whiteSpace=wrap;rounded=0;fontSize=16;textShadow=1;aspect=fixed;fontFamily=HarmonyOS Sans;" vertex="1" parent="1">
          <mxGeometry x="500" y="390" width="125" height="50" as="geometry" />
        </mxCell>
      </root>
    </mxGraphModel>
  </diagram>
  <diagram id="5WKanCOgQdCqgHU34nmj" name="Page-2">
    <mxGraphModel dx="1050" dy="522" grid="1" gridSize="10" guides="1" tooltips="1" connect="1" arrows="1" fold="1" page="1" pageScale="1" pageWidth="827" pageHeight="1169" math="0" shadow="0">
      <root>
        <mxCell id="0" />
        <mxCell id="1" parent="0" />
        <mxCell id="iwWrBZWy5ZZdxGuoeVys-1" value="&lt;font style=&quot;font-size: 16px;&quot; face=&quot;Comic Sans MS&quot;&gt;1&lt;/font&gt;" style="rounded=1;whiteSpace=wrap;html=1;strokeWidth=2;fillWeight=4;hachureGap=8;hachureAngle=45;fillColor=#dae8fc;sketch=1;strokeColor=#6c8ebf;" vertex="1" parent="1">
          <mxGeometry x="370" y="250" width="40" height="40" as="geometry" />
        </mxCell>
        <mxCell id="iwWrBZWy5ZZdxGuoeVys-2" value="&lt;font style=&quot;font-size: 16px;&quot; face=&quot;Comic Sans MS&quot;&gt;2&lt;/font&gt;" style="rounded=1;whiteSpace=wrap;html=1;strokeWidth=2;fillWeight=4;hachureGap=8;hachureAngle=45;fillColor=#dae8fc;sketch=1;strokeColor=#6c8ebf;" vertex="1" parent="1">
          <mxGeometry x="470" y="250" width="40" height="40" as="geometry" />
        </mxCell>
        <mxCell id="iwWrBZWy5ZZdxGuoeVys-3" value="&lt;font style=&quot;font-size: 16px;&quot; face=&quot;Comic Sans MS&quot;&gt;3&lt;/font&gt;" style="rounded=1;whiteSpace=wrap;html=1;strokeWidth=2;fillWeight=4;hachureGap=8;hachureAngle=45;fillColor=#dae8fc;sketch=1;strokeColor=#6c8ebf;" vertex="1" parent="1">
          <mxGeometry x="570" y="250" width="40" height="40" as="geometry" />
        </mxCell>
        <mxCell id="iwWrBZWy5ZZdxGuoeVys-4" value="&lt;font style=&quot;font-size: 16px;&quot; face=&quot;Comic Sans MS&quot;&gt;4&lt;/font&gt;" style="rounded=1;whiteSpace=wrap;html=1;strokeWidth=2;fillWeight=4;hachureGap=8;hachureAngle=45;fillColor=#dae8fc;sketch=1;strokeColor=#6c8ebf;" vertex="1" parent="1">
          <mxGeometry x="670" y="250" width="40" height="40" as="geometry" />
        </mxCell>
        <mxCell id="iwWrBZWy5ZZdxGuoeVys-5" value="&lt;font style=&quot;font-size: 16px;&quot; face=&quot;Comic Sans MS&quot;&gt;5&lt;/font&gt;" style="rounded=1;whiteSpace=wrap;html=1;strokeWidth=2;fillWeight=4;hachureGap=8;hachureAngle=45;fillColor=#dae8fc;sketch=1;strokeColor=#6c8ebf;" vertex="1" parent="1">
          <mxGeometry x="770" y="250" width="40" height="40" as="geometry" />
        </mxCell>
        <mxCell id="iwWrBZWy5ZZdxGuoeVys-6" value="&lt;font style=&quot;font-size: 16px;&quot; face=&quot;Comic Sans MS&quot;&gt;0&lt;/font&gt;" style="rounded=1;whiteSpace=wrap;html=1;strokeWidth=2;fillWeight=4;hachureGap=8;hachureAngle=45;fillColor=#ffe6cc;sketch=1;strokeColor=#d79b00;" vertex="1" parent="1">
          <mxGeometry x="270" y="250" width="40" height="40" as="geometry" />
        </mxCell>
        <mxCell id="iwWrBZWy5ZZdxGuoeVys-7" value="" style="endArrow=classic;html=1;rounded=0;strokeWidth=2;entryX=0.5;entryY=0;entryDx=0;entryDy=0;fillColor=#f8cecc;strokeColor=#FF3333;" edge="1" parent="1" target="iwWrBZWy5ZZdxGuoeVys-6">
          <mxGeometry width="50" height="50" relative="1" as="geometry">
            <mxPoint x="290" y="190" as="sourcePoint" />
            <mxPoint x="440" y="250" as="targetPoint" />
          </mxGeometry>
        </mxCell>
        <mxCell id="iwWrBZWy5ZZdxGuoeVys-8" value="" style="endArrow=classic;html=1;rounded=0;strokeWidth=2;exitX=1;exitY=0.5;exitDx=0;exitDy=0;entryX=0;entryY=0.5;entryDx=0;entryDy=0;" edge="1" parent="1" source="iwWrBZWy5ZZdxGuoeVys-6" target="iwWrBZWy5ZZdxGuoeVys-1">
          <mxGeometry width="50" height="50" relative="1" as="geometry">
            <mxPoint x="390" y="300" as="sourcePoint" />
            <mxPoint x="440" y="250" as="targetPoint" />
          </mxGeometry>
        </mxCell>
        <mxCell id="iwWrBZWy5ZZdxGuoeVys-9" value="" style="endArrow=classic;html=1;rounded=0;strokeWidth=2;exitX=1;exitY=0.5;exitDx=0;exitDy=0;entryX=0;entryY=0.5;entryDx=0;entryDy=0;" edge="1" parent="1" source="iwWrBZWy5ZZdxGuoeVys-1" target="iwWrBZWy5ZZdxGuoeVys-2">
          <mxGeometry width="50" height="50" relative="1" as="geometry">
            <mxPoint x="410" y="269.5" as="sourcePoint" />
            <mxPoint x="470" y="269.5" as="targetPoint" />
          </mxGeometry>
        </mxCell>
        <mxCell id="iwWrBZWy5ZZdxGuoeVys-10" value="" style="endArrow=classic;html=1;rounded=0;strokeWidth=2;exitX=1;exitY=0.5;exitDx=0;exitDy=0;entryX=0;entryY=0.5;entryDx=0;entryDy=0;" edge="1" parent="1" source="iwWrBZWy5ZZdxGuoeVys-2" target="iwWrBZWy5ZZdxGuoeVys-3">
          <mxGeometry width="50" height="50" relative="1" as="geometry">
            <mxPoint x="510" y="290" as="sourcePoint" />
            <mxPoint x="570" y="290" as="targetPoint" />
          </mxGeometry>
        </mxCell>
        <mxCell id="iwWrBZWy5ZZdxGuoeVys-11" value="" style="endArrow=classic;html=1;rounded=0;strokeWidth=2;exitX=1;exitY=0.5;exitDx=0;exitDy=0;entryX=0;entryY=0.5;entryDx=0;entryDy=0;" edge="1" parent="1" source="iwWrBZWy5ZZdxGuoeVys-3" target="iwWrBZWy5ZZdxGuoeVys-4">
          <mxGeometry width="50" height="50" relative="1" as="geometry">
            <mxPoint x="620" y="300" as="sourcePoint" />
            <mxPoint x="680" y="300" as="targetPoint" />
          </mxGeometry>
        </mxCell>
        <mxCell id="iwWrBZWy5ZZdxGuoeVys-12" value="" style="endArrow=classic;html=1;rounded=0;strokeWidth=2;exitX=1;exitY=0.5;exitDx=0;exitDy=0;entryX=0;entryY=0.5;entryDx=0;entryDy=0;" edge="1" parent="1" source="iwWrBZWy5ZZdxGuoeVys-4" target="iwWrBZWy5ZZdxGuoeVys-5">
          <mxGeometry width="50" height="50" relative="1" as="geometry">
            <mxPoint x="720" y="310" as="sourcePoint" />
            <mxPoint x="780" y="310" as="targetPoint" />
          </mxGeometry>
        </mxCell>
        <mxCell id="iwWrBZWy5ZZdxGuoeVys-13" value="" style="endArrow=classic;html=1;rounded=0;strokeWidth=2;exitX=1;exitY=0.5;exitDx=0;exitDy=0;entryX=0;entryY=0.5;entryDx=0;entryDy=0;" edge="1" parent="1" source="iwWrBZWy5ZZdxGuoeVys-5">
          <mxGeometry width="50" height="50" relative="1" as="geometry">
            <mxPoint x="810" y="270" as="sourcePoint" />
            <mxPoint x="870" y="270" as="targetPoint" />
          </mxGeometry>
        </mxCell>
        <mxCell id="iwWrBZWy5ZZdxGuoeVys-14" value="&lt;font style=&quot;font-size: 16px;&quot;&gt;&lt;b&gt;NULL&lt;/b&gt;&lt;/font&gt;" style="text;html=1;align=center;verticalAlign=middle;whiteSpace=wrap;rounded=0;fontSize=16;textShadow=1;aspect=fixed;fontFamily=HarmonyOS Sans;" vertex="1" parent="1">
          <mxGeometry x="837" y="243" width="125" height="50" as="geometry" />
        </mxCell>
        <mxCell id="iwWrBZWy5ZZdxGuoeVys-15" value="&lt;b&gt;dummy&lt;/b&gt;" style="text;html=1;align=center;verticalAlign=middle;whiteSpace=wrap;rounded=0;fontSize=16;textShadow=1;aspect=fixed;fontFamily=HarmonyOS Sans;" vertex="1" parent="1">
          <mxGeometry x="227.5" y="280" width="125" height="50" as="geometry" />
        </mxCell>
        <mxCell id="iwWrBZWy5ZZdxGuoeVys-16" value="&lt;font style=&quot;font-size: 16px;&quot;&gt;&lt;b&gt;head&lt;/b&gt;&lt;/font&gt;" style="text;html=1;align=center;verticalAlign=middle;whiteSpace=wrap;rounded=0;fontSize=16;textShadow=1;aspect=fixed;fontFamily=HarmonyOS Sans;" vertex="1" parent="1">
          <mxGeometry x="327.5" y="280" width="125" height="50" as="geometry" />
        </mxCell>
        <mxCell id="iwWrBZWy5ZZdxGuoeVys-17" value="&lt;font style=&quot;font-size: 16px;&quot;&gt;&lt;b&gt;slow&lt;/b&gt;&lt;/font&gt;" style="text;html=1;align=center;verticalAlign=middle;whiteSpace=wrap;rounded=0;fontSize=16;textShadow=1;aspect=fixed;fontFamily=HarmonyOS Sans;" vertex="1" parent="1">
          <mxGeometry x="227.5" y="150" width="125" height="50" as="geometry" />
        </mxCell>
        <mxCell id="iwWrBZWy5ZZdxGuoeVys-18" value="&lt;span style=&quot;font-size: 20px;&quot;&gt;&lt;b&gt;将fast指针向前移动n步&lt;/b&gt;&lt;/span&gt;" style="text;html=1;align=center;verticalAlign=middle;whiteSpace=wrap;rounded=0;fontSize=16;textShadow=1;aspect=fixed;fontFamily=HarmonyOS Sans;" vertex="1" parent="1">
          <mxGeometry x="390" y="300" width="350" height="140" as="geometry" />
        </mxCell>
        <mxCell id="iwWrBZWy5ZZdxGuoeVys-19" value="&lt;b&gt;n = 2&lt;/b&gt;" style="text;html=1;align=center;verticalAlign=middle;whiteSpace=wrap;rounded=0;fontSize=16;textShadow=1;aspect=fixed;fontFamily=HarmonyOS Sans;" vertex="1" parent="1">
          <mxGeometry x="500" y="390" width="125" height="50" as="geometry" />
        </mxCell>
        <mxCell id="iwWrBZWy5ZZdxGuoeVys-20" value="" style="endArrow=classic;html=1;rounded=0;strokeWidth=2;entryX=0.5;entryY=0;entryDx=0;entryDy=0;fillColor=#f8cecc;strokeColor=#FF3333;" edge="1" parent="1">
          <mxGeometry width="50" height="50" relative="1" as="geometry">
            <mxPoint x="490.5" y="190" as="sourcePoint" />
            <mxPoint x="490.5" y="250" as="targetPoint" />
          </mxGeometry>
        </mxCell>
        <mxCell id="iwWrBZWy5ZZdxGuoeVys-21" value="&lt;font style=&quot;font-size: 16px;&quot;&gt;&lt;b&gt;fast&lt;/b&gt;&lt;/font&gt;" style="text;html=1;align=center;verticalAlign=middle;whiteSpace=wrap;rounded=0;fontSize=16;textShadow=1;aspect=fixed;fontFamily=HarmonyOS Sans;" vertex="1" parent="1">
          <mxGeometry x="428" y="150" width="125" height="50" as="geometry" />
        </mxCell>
      </root>
    </mxGraphModel>
  </diagram>
  <diagram id="JTotqAauzeyNRqD1fV05" name="Page-3">
    <mxGraphModel dx="1050" dy="522" grid="1" gridSize="10" guides="1" tooltips="1" connect="1" arrows="1" fold="1" page="1" pageScale="1" pageWidth="827" pageHeight="1169" math="0" shadow="0">
      <root>
        <mxCell id="0" />
        <mxCell id="1" parent="0" />
        <mxCell id="GQWMmryWXNQVR1M1rCkj-1" value="&lt;font style=&quot;font-size: 16px;&quot; face=&quot;Comic Sans MS&quot;&gt;1&lt;/font&gt;" style="rounded=1;whiteSpace=wrap;html=1;strokeWidth=2;fillWeight=4;hachureGap=8;hachureAngle=45;fillColor=#dae8fc;sketch=1;strokeColor=#6c8ebf;" vertex="1" parent="1">
          <mxGeometry x="370" y="250" width="40" height="40" as="geometry" />
        </mxCell>
        <mxCell id="GQWMmryWXNQVR1M1rCkj-2" value="&lt;font style=&quot;font-size: 16px;&quot; face=&quot;Comic Sans MS&quot;&gt;2&lt;/font&gt;" style="rounded=1;whiteSpace=wrap;html=1;strokeWidth=2;fillWeight=4;hachureGap=8;hachureAngle=45;fillColor=#dae8fc;sketch=1;strokeColor=#6c8ebf;" vertex="1" parent="1">
          <mxGeometry x="470" y="250" width="40" height="40" as="geometry" />
        </mxCell>
        <mxCell id="GQWMmryWXNQVR1M1rCkj-3" value="&lt;font style=&quot;font-size: 16px;&quot; face=&quot;Comic Sans MS&quot;&gt;3&lt;/font&gt;" style="rounded=1;whiteSpace=wrap;html=1;strokeWidth=2;fillWeight=4;hachureGap=8;hachureAngle=45;fillColor=#dae8fc;sketch=1;strokeColor=#6c8ebf;" vertex="1" parent="1">
          <mxGeometry x="570" y="250" width="40" height="40" as="geometry" />
        </mxCell>
        <mxCell id="GQWMmryWXNQVR1M1rCkj-4" value="&lt;font style=&quot;font-size: 16px;&quot; face=&quot;Comic Sans MS&quot;&gt;4&lt;/font&gt;" style="rounded=1;whiteSpace=wrap;html=1;strokeWidth=2;fillWeight=4;hachureGap=8;hachureAngle=45;fillColor=#dae8fc;sketch=1;strokeColor=#6c8ebf;" vertex="1" parent="1">
          <mxGeometry x="670" y="250" width="40" height="40" as="geometry" />
        </mxCell>
        <mxCell id="GQWMmryWXNQVR1M1rCkj-5" value="&lt;font style=&quot;font-size: 16px;&quot; face=&quot;Comic Sans MS&quot;&gt;5&lt;/font&gt;" style="rounded=1;whiteSpace=wrap;html=1;strokeWidth=2;fillWeight=4;hachureGap=8;hachureAngle=45;fillColor=#dae8fc;sketch=1;strokeColor=#6c8ebf;" vertex="1" parent="1">
          <mxGeometry x="770" y="250" width="40" height="40" as="geometry" />
        </mxCell>
        <mxCell id="GQWMmryWXNQVR1M1rCkj-6" value="&lt;font style=&quot;font-size: 16px;&quot; face=&quot;Comic Sans MS&quot;&gt;0&lt;/font&gt;" style="rounded=1;whiteSpace=wrap;html=1;strokeWidth=2;fillWeight=4;hachureGap=8;hachureAngle=45;fillColor=#ffe6cc;sketch=1;strokeColor=#d79b00;" vertex="1" parent="1">
          <mxGeometry x="270" y="250" width="40" height="40" as="geometry" />
        </mxCell>
        <mxCell id="GQWMmryWXNQVR1M1rCkj-7" value="" style="endArrow=classic;html=1;rounded=0;strokeWidth=2;entryX=0.5;entryY=0;entryDx=0;entryDy=0;fillColor=#f8cecc;strokeColor=#FF3333;" edge="1" parent="1">
          <mxGeometry width="50" height="50" relative="1" as="geometry">
            <mxPoint x="589.5" y="190" as="sourcePoint" />
            <mxPoint x="589.5" y="250" as="targetPoint" />
          </mxGeometry>
        </mxCell>
        <mxCell id="GQWMmryWXNQVR1M1rCkj-8" value="" style="endArrow=classic;html=1;rounded=0;strokeWidth=2;exitX=1;exitY=0.5;exitDx=0;exitDy=0;entryX=0;entryY=0.5;entryDx=0;entryDy=0;" edge="1" parent="1" source="GQWMmryWXNQVR1M1rCkj-6" target="GQWMmryWXNQVR1M1rCkj-1">
          <mxGeometry width="50" height="50" relative="1" as="geometry">
            <mxPoint x="390" y="300" as="sourcePoint" />
            <mxPoint x="440" y="250" as="targetPoint" />
          </mxGeometry>
        </mxCell>
        <mxCell id="GQWMmryWXNQVR1M1rCkj-9" value="" style="endArrow=classic;html=1;rounded=0;strokeWidth=2;exitX=1;exitY=0.5;exitDx=0;exitDy=0;entryX=0;entryY=0.5;entryDx=0;entryDy=0;" edge="1" parent="1" source="GQWMmryWXNQVR1M1rCkj-1" target="GQWMmryWXNQVR1M1rCkj-2">
          <mxGeometry width="50" height="50" relative="1" as="geometry">
            <mxPoint x="410" y="269.5" as="sourcePoint" />
            <mxPoint x="470" y="269.5" as="targetPoint" />
          </mxGeometry>
        </mxCell>
        <mxCell id="GQWMmryWXNQVR1M1rCkj-10" value="" style="endArrow=classic;html=1;rounded=0;strokeWidth=2;exitX=1;exitY=0.5;exitDx=0;exitDy=0;entryX=0;entryY=0.5;entryDx=0;entryDy=0;" edge="1" parent="1" source="GQWMmryWXNQVR1M1rCkj-2" target="GQWMmryWXNQVR1M1rCkj-3">
          <mxGeometry width="50" height="50" relative="1" as="geometry">
            <mxPoint x="510" y="290" as="sourcePoint" />
            <mxPoint x="570" y="290" as="targetPoint" />
          </mxGeometry>
        </mxCell>
        <mxCell id="GQWMmryWXNQVR1M1rCkj-11" value="" style="endArrow=classic;html=1;rounded=0;strokeWidth=2;exitX=1;exitY=0.5;exitDx=0;exitDy=0;entryX=0;entryY=0.5;entryDx=0;entryDy=0;" edge="1" parent="1" source="GQWMmryWXNQVR1M1rCkj-3" target="GQWMmryWXNQVR1M1rCkj-4">
          <mxGeometry width="50" height="50" relative="1" as="geometry">
            <mxPoint x="620" y="300" as="sourcePoint" />
            <mxPoint x="680" y="300" as="targetPoint" />
          </mxGeometry>
        </mxCell>
        <mxCell id="GQWMmryWXNQVR1M1rCkj-12" value="" style="endArrow=classic;html=1;rounded=0;strokeWidth=2;exitX=1;exitY=0.5;exitDx=0;exitDy=0;entryX=0;entryY=0.5;entryDx=0;entryDy=0;" edge="1" parent="1" source="GQWMmryWXNQVR1M1rCkj-4" target="GQWMmryWXNQVR1M1rCkj-5">
          <mxGeometry width="50" height="50" relative="1" as="geometry">
            <mxPoint x="720" y="310" as="sourcePoint" />
            <mxPoint x="780" y="310" as="targetPoint" />
          </mxGeometry>
        </mxCell>
        <mxCell id="GQWMmryWXNQVR1M1rCkj-13" value="" style="endArrow=classic;html=1;rounded=0;strokeWidth=2;exitX=1;exitY=0.5;exitDx=0;exitDy=0;entryX=0;entryY=0.5;entryDx=0;entryDy=0;" edge="1" parent="1" source="GQWMmryWXNQVR1M1rCkj-5">
          <mxGeometry width="50" height="50" relative="1" as="geometry">
            <mxPoint x="810" y="270" as="sourcePoint" />
            <mxPoint x="870" y="270" as="targetPoint" />
          </mxGeometry>
        </mxCell>
        <mxCell id="GQWMmryWXNQVR1M1rCkj-14" value="&lt;font style=&quot;font-size: 16px;&quot;&gt;&lt;b&gt;NULL&lt;/b&gt;&lt;/font&gt;" style="text;html=1;align=center;verticalAlign=middle;whiteSpace=wrap;rounded=0;fontSize=16;textShadow=1;aspect=fixed;fontFamily=HarmonyOS Sans;" vertex="1" parent="1">
          <mxGeometry x="837" y="243" width="125" height="50" as="geometry" />
        </mxCell>
        <mxCell id="GQWMmryWXNQVR1M1rCkj-15" value="&lt;b&gt;dummy&lt;/b&gt;" style="text;html=1;align=center;verticalAlign=middle;whiteSpace=wrap;rounded=0;fontSize=16;textShadow=1;aspect=fixed;fontFamily=HarmonyOS Sans;" vertex="1" parent="1">
          <mxGeometry x="227.5" y="280" width="125" height="50" as="geometry" />
        </mxCell>
        <mxCell id="GQWMmryWXNQVR1M1rCkj-16" value="&lt;font style=&quot;font-size: 16px;&quot;&gt;&lt;b&gt;head&lt;/b&gt;&lt;/font&gt;" style="text;html=1;align=center;verticalAlign=middle;whiteSpace=wrap;rounded=0;fontSize=16;textShadow=1;aspect=fixed;fontFamily=HarmonyOS Sans;" vertex="1" parent="1">
          <mxGeometry x="327.5" y="280" width="125" height="50" as="geometry" />
        </mxCell>
        <mxCell id="GQWMmryWXNQVR1M1rCkj-17" value="&lt;font style=&quot;font-size: 16px;&quot;&gt;&lt;b&gt;slow&lt;/b&gt;&lt;/font&gt;" style="text;html=1;align=center;verticalAlign=middle;whiteSpace=wrap;rounded=0;fontSize=16;textShadow=1;aspect=fixed;fontFamily=HarmonyOS Sans;" vertex="1" parent="1">
          <mxGeometry x="527.5" y="150" width="125" height="50" as="geometry" />
        </mxCell>
        <mxCell id="GQWMmryWXNQVR1M1rCkj-18" value="&lt;span style=&quot;font-size: 20px;&quot;&gt;&lt;b&gt;slow, fast同时向前移动，直到fast到达链表末尾&lt;/b&gt;&lt;/span&gt;" style="text;html=1;align=center;verticalAlign=middle;whiteSpace=wrap;rounded=0;fontSize=16;textShadow=1;aspect=fixed;fontFamily=HarmonyOS Sans;" vertex="1" parent="1">
          <mxGeometry x="360" y="280" width="420" height="168" as="geometry" />
        </mxCell>
        <mxCell id="GQWMmryWXNQVR1M1rCkj-19" value="&lt;b&gt;n = 2&lt;/b&gt;" style="text;html=1;align=center;verticalAlign=middle;whiteSpace=wrap;rounded=0;fontSize=16;textShadow=1;aspect=fixed;fontFamily=HarmonyOS Sans;" vertex="1" parent="1">
          <mxGeometry x="500" y="390" width="125" height="50" as="geometry" />
        </mxCell>
        <mxCell id="GQWMmryWXNQVR1M1rCkj-20" value="" style="endArrow=classic;html=1;rounded=0;strokeWidth=2;entryX=0.5;entryY=0;entryDx=0;entryDy=0;fillColor=#f8cecc;strokeColor=#FF3333;" edge="1" parent="1">
          <mxGeometry width="50" height="50" relative="1" as="geometry">
            <mxPoint x="790" y="190" as="sourcePoint" />
            <mxPoint x="790" y="250" as="targetPoint" />
          </mxGeometry>
        </mxCell>
        <mxCell id="GQWMmryWXNQVR1M1rCkj-21" value="&lt;font style=&quot;font-size: 16px;&quot;&gt;&lt;b&gt;fast&lt;/b&gt;&lt;/font&gt;" style="text;html=1;align=center;verticalAlign=middle;whiteSpace=wrap;rounded=0;fontSize=16;textShadow=1;aspect=fixed;fontFamily=HarmonyOS Sans;" vertex="1" parent="1">
          <mxGeometry x="727.5" y="150" width="125" height="50" as="geometry" />
        </mxCell>
      </root>
    </mxGraphModel>
  </diagram>
  <diagram id="eUi8X7Oe6XdqMVbUb-fb" name="Page-4">
    <mxGraphModel dx="1050" dy="522" grid="1" gridSize="10" guides="1" tooltips="1" connect="1" arrows="1" fold="1" page="1" pageScale="1" pageWidth="827" pageHeight="1169" math="0" shadow="0">
      <root>
        <mxCell id="0" />
        <mxCell id="1" parent="0" />
        <mxCell id="t6YU_jjsPjLzAJRTHfsD-1" value="&lt;font style=&quot;font-size: 16px;&quot; face=&quot;Comic Sans MS&quot;&gt;1&lt;/font&gt;" style="rounded=1;whiteSpace=wrap;html=1;strokeWidth=2;fillWeight=4;hachureGap=8;hachureAngle=45;fillColor=#dae8fc;sketch=1;strokeColor=#6c8ebf;" vertex="1" parent="1">
          <mxGeometry x="370" y="250" width="40" height="40" as="geometry" />
        </mxCell>
        <mxCell id="t6YU_jjsPjLzAJRTHfsD-2" value="&lt;font style=&quot;font-size: 16px;&quot; face=&quot;Comic Sans MS&quot;&gt;2&lt;/font&gt;" style="rounded=1;whiteSpace=wrap;html=1;strokeWidth=2;fillWeight=4;hachureGap=8;hachureAngle=45;fillColor=#dae8fc;sketch=1;strokeColor=#6c8ebf;" vertex="1" parent="1">
          <mxGeometry x="470" y="250" width="40" height="40" as="geometry" />
        </mxCell>
        <mxCell id="t6YU_jjsPjLzAJRTHfsD-3" value="&lt;font style=&quot;font-size: 16px;&quot; face=&quot;Comic Sans MS&quot;&gt;3&lt;/font&gt;" style="rounded=1;whiteSpace=wrap;html=1;strokeWidth=2;fillWeight=4;hachureGap=8;hachureAngle=45;fillColor=#dae8fc;sketch=1;strokeColor=#6c8ebf;" vertex="1" parent="1">
          <mxGeometry x="570" y="250" width="40" height="40" as="geometry" />
        </mxCell>
        <mxCell id="t6YU_jjsPjLzAJRTHfsD-4" value="&lt;font style=&quot;font-size: 16px;&quot; face=&quot;Comic Sans MS&quot;&gt;4&lt;/font&gt;" style="rounded=1;whiteSpace=wrap;html=1;strokeWidth=2;fillWeight=4;hachureGap=8;hachureAngle=45;fillColor=#dae8fc;sketch=1;strokeColor=#6c8ebf;" vertex="1" parent="1">
          <mxGeometry x="670" y="250" width="40" height="40" as="geometry" />
        </mxCell>
        <mxCell id="t6YU_jjsPjLzAJRTHfsD-5" value="&lt;font style=&quot;font-size: 16px;&quot; face=&quot;Comic Sans MS&quot;&gt;5&lt;/font&gt;" style="rounded=1;whiteSpace=wrap;html=1;strokeWidth=2;fillWeight=4;hachureGap=8;hachureAngle=45;fillColor=#dae8fc;sketch=1;strokeColor=#6c8ebf;" vertex="1" parent="1">
          <mxGeometry x="770" y="250" width="40" height="40" as="geometry" />
        </mxCell>
        <mxCell id="t6YU_jjsPjLzAJRTHfsD-6" value="&lt;font style=&quot;font-size: 16px;&quot; face=&quot;Comic Sans MS&quot;&gt;0&lt;/font&gt;" style="rounded=1;whiteSpace=wrap;html=1;strokeWidth=2;fillWeight=4;hachureGap=8;hachureAngle=45;fillColor=#ffe6cc;sketch=1;strokeColor=#d79b00;" vertex="1" parent="1">
          <mxGeometry x="270" y="250" width="40" height="40" as="geometry" />
        </mxCell>
        <mxCell id="t6YU_jjsPjLzAJRTHfsD-7" value="" style="endArrow=classic;html=1;rounded=0;strokeWidth=2;entryX=0.5;entryY=0;entryDx=0;entryDy=0;fillColor=#f8cecc;strokeColor=#FF3333;" edge="1" parent="1">
          <mxGeometry width="50" height="50" relative="1" as="geometry">
            <mxPoint x="589.5" y="190" as="sourcePoint" />
            <mxPoint x="589.5" y="250" as="targetPoint" />
          </mxGeometry>
        </mxCell>
        <mxCell id="t6YU_jjsPjLzAJRTHfsD-8" value="" style="endArrow=classic;html=1;rounded=0;strokeWidth=2;exitX=1;exitY=0.5;exitDx=0;exitDy=0;entryX=0;entryY=0.5;entryDx=0;entryDy=0;" edge="1" parent="1" source="t6YU_jjsPjLzAJRTHfsD-6" target="t6YU_jjsPjLzAJRTHfsD-1">
          <mxGeometry width="50" height="50" relative="1" as="geometry">
            <mxPoint x="390" y="300" as="sourcePoint" />
            <mxPoint x="440" y="250" as="targetPoint" />
          </mxGeometry>
        </mxCell>
        <mxCell id="t6YU_jjsPjLzAJRTHfsD-9" value="" style="endArrow=classic;html=1;rounded=0;strokeWidth=2;exitX=1;exitY=0.5;exitDx=0;exitDy=0;entryX=0;entryY=0.5;entryDx=0;entryDy=0;" edge="1" parent="1" source="t6YU_jjsPjLzAJRTHfsD-1" target="t6YU_jjsPjLzAJRTHfsD-2">
          <mxGeometry width="50" height="50" relative="1" as="geometry">
            <mxPoint x="410" y="269.5" as="sourcePoint" />
            <mxPoint x="470" y="269.5" as="targetPoint" />
          </mxGeometry>
        </mxCell>
        <mxCell id="t6YU_jjsPjLzAJRTHfsD-10" value="" style="endArrow=classic;html=1;rounded=0;strokeWidth=2;exitX=1;exitY=0.5;exitDx=0;exitDy=0;entryX=0;entryY=0.5;entryDx=0;entryDy=0;" edge="1" parent="1" source="t6YU_jjsPjLzAJRTHfsD-2" target="t6YU_jjsPjLzAJRTHfsD-3">
          <mxGeometry width="50" height="50" relative="1" as="geometry">
            <mxPoint x="510" y="290" as="sourcePoint" />
            <mxPoint x="570" y="290" as="targetPoint" />
          </mxGeometry>
        </mxCell>
        <mxCell id="t6YU_jjsPjLzAJRTHfsD-11" value="" style="endArrow=classic;html=1;rounded=0;strokeWidth=2;exitX=1;exitY=0.5;exitDx=0;exitDy=0;entryX=0;entryY=0.5;entryDx=0;entryDy=0;dashed=1;" edge="1" parent="1" source="t6YU_jjsPjLzAJRTHfsD-3" target="t6YU_jjsPjLzAJRTHfsD-4">
          <mxGeometry width="50" height="50" relative="1" as="geometry">
            <mxPoint x="620" y="300" as="sourcePoint" />
            <mxPoint x="680" y="300" as="targetPoint" />
          </mxGeometry>
        </mxCell>
        <mxCell id="t6YU_jjsPjLzAJRTHfsD-12" value="" style="endArrow=classic;html=1;rounded=0;strokeWidth=2;exitX=1;exitY=0.5;exitDx=0;exitDy=0;entryX=0;entryY=0.5;entryDx=0;entryDy=0;" edge="1" parent="1" source="t6YU_jjsPjLzAJRTHfsD-4" target="t6YU_jjsPjLzAJRTHfsD-5">
          <mxGeometry width="50" height="50" relative="1" as="geometry">
            <mxPoint x="720" y="310" as="sourcePoint" />
            <mxPoint x="780" y="310" as="targetPoint" />
          </mxGeometry>
        </mxCell>
        <mxCell id="t6YU_jjsPjLzAJRTHfsD-13" value="" style="endArrow=classic;html=1;rounded=0;strokeWidth=2;exitX=1;exitY=0.5;exitDx=0;exitDy=0;entryX=0;entryY=0.5;entryDx=0;entryDy=0;" edge="1" parent="1" source="t6YU_jjsPjLzAJRTHfsD-5">
          <mxGeometry width="50" height="50" relative="1" as="geometry">
            <mxPoint x="810" y="270" as="sourcePoint" />
            <mxPoint x="870" y="270" as="targetPoint" />
          </mxGeometry>
        </mxCell>
        <mxCell id="t6YU_jjsPjLzAJRTHfsD-14" value="&lt;font style=&quot;font-size: 16px;&quot;&gt;&lt;b&gt;NULL&lt;/b&gt;&lt;/font&gt;" style="text;html=1;align=center;verticalAlign=middle;whiteSpace=wrap;rounded=0;fontSize=16;textShadow=1;aspect=fixed;fontFamily=HarmonyOS Sans;" vertex="1" parent="1">
          <mxGeometry x="837" y="243" width="125" height="50" as="geometry" />
        </mxCell>
        <mxCell id="t6YU_jjsPjLzAJRTHfsD-15" value="&lt;b&gt;dummy&lt;/b&gt;" style="text;html=1;align=center;verticalAlign=middle;whiteSpace=wrap;rounded=0;fontSize=16;textShadow=1;aspect=fixed;fontFamily=HarmonyOS Sans;" vertex="1" parent="1">
          <mxGeometry x="227.5" y="280" width="125" height="50" as="geometry" />
        </mxCell>
        <mxCell id="t6YU_jjsPjLzAJRTHfsD-16" value="&lt;font style=&quot;font-size: 16px;&quot;&gt;&lt;b&gt;head&lt;/b&gt;&lt;/font&gt;" style="text;html=1;align=center;verticalAlign=middle;whiteSpace=wrap;rounded=0;fontSize=16;textShadow=1;aspect=fixed;fontFamily=HarmonyOS Sans;" vertex="1" parent="1">
          <mxGeometry x="327.5" y="280" width="125" height="50" as="geometry" />
        </mxCell>
        <mxCell id="t6YU_jjsPjLzAJRTHfsD-17" value="&lt;font style=&quot;font-size: 16px;&quot;&gt;&lt;b&gt;slow&lt;/b&gt;&lt;/font&gt;" style="text;html=1;align=center;verticalAlign=middle;whiteSpace=wrap;rounded=0;fontSize=16;textShadow=1;aspect=fixed;fontFamily=HarmonyOS Sans;" vertex="1" parent="1">
          <mxGeometry x="527.5" y="150" width="125" height="50" as="geometry" />
        </mxCell>
        <mxCell id="t6YU_jjsPjLzAJRTHfsD-18" value="&lt;span style=&quot;font-size: 20px;&quot;&gt;&lt;b&gt;slow.next = slow.next.next&lt;/b&gt;&lt;/span&gt;" style="text;html=1;align=center;verticalAlign=middle;whiteSpace=wrap;rounded=0;fontSize=16;textShadow=1;aspect=fixed;fontFamily=HarmonyOS Sans;" vertex="1" parent="1">
          <mxGeometry x="435" y="320" width="275" height="110" as="geometry" />
        </mxCell>
        <mxCell id="t6YU_jjsPjLzAJRTHfsD-19" value="&lt;b&gt;n = 2&lt;/b&gt;" style="text;html=1;align=center;verticalAlign=middle;whiteSpace=wrap;rounded=0;fontSize=16;textShadow=1;aspect=fixed;fontFamily=HarmonyOS Sans;" vertex="1" parent="1">
          <mxGeometry x="500" y="390" width="125" height="50" as="geometry" />
        </mxCell>
        <mxCell id="t6YU_jjsPjLzAJRTHfsD-20" value="" style="endArrow=classic;html=1;rounded=0;strokeWidth=2;entryX=0.5;entryY=0;entryDx=0;entryDy=0;fillColor=#f8cecc;strokeColor=#FF3333;" edge="1" parent="1">
          <mxGeometry width="50" height="50" relative="1" as="geometry">
            <mxPoint x="790" y="190" as="sourcePoint" />
            <mxPoint x="790" y="250" as="targetPoint" />
          </mxGeometry>
        </mxCell>
        <mxCell id="t6YU_jjsPjLzAJRTHfsD-21" value="&lt;font style=&quot;font-size: 16px;&quot;&gt;&lt;b&gt;fast&lt;/b&gt;&lt;/font&gt;" style="text;html=1;align=center;verticalAlign=middle;whiteSpace=wrap;rounded=0;fontSize=16;textShadow=1;aspect=fixed;fontFamily=HarmonyOS Sans;" vertex="1" parent="1">
          <mxGeometry x="727.5" y="150" width="125" height="50" as="geometry" />
        </mxCell>
        <mxCell id="t6YU_jjsPjLzAJRTHfsD-23" value="" style="endArrow=classic;html=1;rounded=0;strokeWidth=2;exitX=0.5;exitY=1;exitDx=0;exitDy=0;entryX=0.5;entryY=1;entryDx=0;entryDy=0;" edge="1" parent="1" source="t6YU_jjsPjLzAJRTHfsD-3" target="t6YU_jjsPjLzAJRTHfsD-5">
          <mxGeometry width="50" height="50" relative="1" as="geometry">
            <mxPoint x="490" y="290" as="sourcePoint" />
            <mxPoint x="690" y="290" as="targetPoint" />
            <Array as="points">
              <mxPoint x="590" y="350" />
              <mxPoint x="790" y="350" />
            </Array>
          </mxGeometry>
        </mxCell>
      </root>
    </mxGraphModel>
  </diagram>
  <diagram id="PH5VTHD8qR00eUceCPVP" name="Page-5">
    <mxGraphModel dx="1050" dy="522" grid="1" gridSize="10" guides="1" tooltips="1" connect="1" arrows="1" fold="1" page="1" pageScale="1" pageWidth="827" pageHeight="1169" math="0" shadow="0">
      <root>
        <mxCell id="0" />
        <mxCell id="1" parent="0" />
        <mxCell id="wg3PGn_0GkAtvqMJTAJF-23" value="&lt;font style=&quot;font-size: 16px;&quot; face=&quot;Comic Sans MS&quot;&gt;1&lt;/font&gt;" style="rounded=1;whiteSpace=wrap;html=1;strokeWidth=2;fillWeight=4;hachureGap=8;hachureAngle=45;fillColor=#dae8fc;sketch=1;strokeColor=#6c8ebf;" vertex="1" parent="1">
          <mxGeometry x="380" y="260" width="40" height="40" as="geometry" />
        </mxCell>
        <mxCell id="wg3PGn_0GkAtvqMJTAJF-24" value="&lt;font style=&quot;font-size: 16px;&quot; face=&quot;Comic Sans MS&quot;&gt;2&lt;/font&gt;" style="rounded=1;whiteSpace=wrap;html=1;strokeWidth=2;fillWeight=4;hachureGap=8;hachureAngle=45;fillColor=#dae8fc;sketch=1;strokeColor=#6c8ebf;" vertex="1" parent="1">
          <mxGeometry x="480" y="260" width="40" height="40" as="geometry" />
        </mxCell>
        <mxCell id="wg3PGn_0GkAtvqMJTAJF-25" value="&lt;font style=&quot;font-size: 16px;&quot; face=&quot;Comic Sans MS&quot;&gt;3&lt;/font&gt;" style="rounded=1;whiteSpace=wrap;html=1;strokeWidth=2;fillWeight=4;hachureGap=8;hachureAngle=45;fillColor=#dae8fc;sketch=1;strokeColor=#6c8ebf;" vertex="1" parent="1">
          <mxGeometry x="580" y="260" width="40" height="40" as="geometry" />
        </mxCell>
        <mxCell id="wg3PGn_0GkAtvqMJTAJF-26" value="&lt;font style=&quot;font-size: 16px;&quot; face=&quot;Comic Sans MS&quot;&gt;4&lt;/font&gt;" style="rounded=1;whiteSpace=wrap;html=1;strokeWidth=2;fillWeight=4;hachureGap=8;hachureAngle=45;fillColor=#dae8fc;sketch=1;strokeColor=#6c8ebf;" vertex="1" parent="1">
          <mxGeometry x="680" y="260" width="40" height="40" as="geometry" />
        </mxCell>
        <mxCell id="wg3PGn_0GkAtvqMJTAJF-27" value="&lt;font style=&quot;font-size: 16px;&quot; face=&quot;Comic Sans MS&quot;&gt;5&lt;/font&gt;" style="rounded=1;whiteSpace=wrap;html=1;strokeWidth=2;fillWeight=4;hachureGap=8;hachureAngle=45;fillColor=#dae8fc;sketch=1;strokeColor=#6c8ebf;" vertex="1" parent="1">
          <mxGeometry x="780" y="260" width="40" height="40" as="geometry" />
        </mxCell>
        <mxCell id="wg3PGn_0GkAtvqMJTAJF-28" value="&lt;font style=&quot;font-size: 16px;&quot; face=&quot;Comic Sans MS&quot;&gt;0&lt;/font&gt;" style="rounded=1;whiteSpace=wrap;html=1;strokeWidth=2;fillWeight=4;hachureGap=8;hachureAngle=45;fillColor=#ffe6cc;sketch=1;strokeColor=#d79b00;" vertex="1" parent="1">
          <mxGeometry x="280" y="260" width="40" height="40" as="geometry" />
        </mxCell>
        <mxCell id="wg3PGn_0GkAtvqMJTAJF-29" value="" style="endArrow=classic;html=1;rounded=0;strokeWidth=2;entryX=0.5;entryY=0;entryDx=0;entryDy=0;fillColor=#f8cecc;strokeColor=#FF3333;" edge="1" parent="1">
          <mxGeometry width="50" height="50" relative="1" as="geometry">
            <mxPoint x="599.5" y="200" as="sourcePoint" />
            <mxPoint x="599.5" y="260" as="targetPoint" />
          </mxGeometry>
        </mxCell>
        <mxCell id="wg3PGn_0GkAtvqMJTAJF-30" value="" style="endArrow=classic;html=1;rounded=0;strokeWidth=2;exitX=1;exitY=0.5;exitDx=0;exitDy=0;entryX=0;entryY=0.5;entryDx=0;entryDy=0;" edge="1" parent="1" source="wg3PGn_0GkAtvqMJTAJF-28" target="wg3PGn_0GkAtvqMJTAJF-23">
          <mxGeometry width="50" height="50" relative="1" as="geometry">
            <mxPoint x="400" y="310" as="sourcePoint" />
            <mxPoint x="450" y="260" as="targetPoint" />
          </mxGeometry>
        </mxCell>
        <mxCell id="wg3PGn_0GkAtvqMJTAJF-31" value="" style="endArrow=classic;html=1;rounded=0;strokeWidth=2;exitX=1;exitY=0.5;exitDx=0;exitDy=0;entryX=0;entryY=0.5;entryDx=0;entryDy=0;" edge="1" parent="1" source="wg3PGn_0GkAtvqMJTAJF-23" target="wg3PGn_0GkAtvqMJTAJF-24">
          <mxGeometry width="50" height="50" relative="1" as="geometry">
            <mxPoint x="420" y="279.5" as="sourcePoint" />
            <mxPoint x="480" y="279.5" as="targetPoint" />
          </mxGeometry>
        </mxCell>
        <mxCell id="wg3PGn_0GkAtvqMJTAJF-32" value="" style="endArrow=classic;html=1;rounded=0;strokeWidth=2;exitX=1;exitY=0.5;exitDx=0;exitDy=0;entryX=0;entryY=0.5;entryDx=0;entryDy=0;" edge="1" parent="1" source="wg3PGn_0GkAtvqMJTAJF-24" target="wg3PGn_0GkAtvqMJTAJF-25">
          <mxGeometry width="50" height="50" relative="1" as="geometry">
            <mxPoint x="520" y="300" as="sourcePoint" />
            <mxPoint x="580" y="300" as="targetPoint" />
          </mxGeometry>
        </mxCell>
        <mxCell id="wg3PGn_0GkAtvqMJTAJF-33" value="" style="endArrow=classic;html=1;rounded=0;strokeWidth=2;exitX=1;exitY=0.5;exitDx=0;exitDy=0;entryX=0;entryY=0.5;entryDx=0;entryDy=0;dashed=1;" edge="1" parent="1" source="wg3PGn_0GkAtvqMJTAJF-25" target="wg3PGn_0GkAtvqMJTAJF-26">
          <mxGeometry width="50" height="50" relative="1" as="geometry">
            <mxPoint x="630" y="310" as="sourcePoint" />
            <mxPoint x="690" y="310" as="targetPoint" />
          </mxGeometry>
        </mxCell>
        <mxCell id="wg3PGn_0GkAtvqMJTAJF-34" value="" style="endArrow=classic;html=1;rounded=0;strokeWidth=2;exitX=1;exitY=0.5;exitDx=0;exitDy=0;entryX=0;entryY=0.5;entryDx=0;entryDy=0;" edge="1" parent="1" source="wg3PGn_0GkAtvqMJTAJF-26" target="wg3PGn_0GkAtvqMJTAJF-27">
          <mxGeometry width="50" height="50" relative="1" as="geometry">
            <mxPoint x="730" y="320" as="sourcePoint" />
            <mxPoint x="790" y="320" as="targetPoint" />
          </mxGeometry>
        </mxCell>
        <mxCell id="wg3PGn_0GkAtvqMJTAJF-35" value="" style="endArrow=classic;html=1;rounded=0;strokeWidth=2;exitX=1;exitY=0.5;exitDx=0;exitDy=0;entryX=0;entryY=0.5;entryDx=0;entryDy=0;" edge="1" parent="1" source="wg3PGn_0GkAtvqMJTAJF-27">
          <mxGeometry width="50" height="50" relative="1" as="geometry">
            <mxPoint x="820" y="280" as="sourcePoint" />
            <mxPoint x="880" y="280" as="targetPoint" />
          </mxGeometry>
        </mxCell>
        <mxCell id="wg3PGn_0GkAtvqMJTAJF-36" value="&lt;font style=&quot;font-size: 16px;&quot;&gt;&lt;b&gt;NULL&lt;/b&gt;&lt;/font&gt;" style="text;html=1;align=center;verticalAlign=middle;whiteSpace=wrap;rounded=0;fontSize=16;textShadow=1;aspect=fixed;fontFamily=HarmonyOS Sans;" vertex="1" parent="1">
          <mxGeometry x="847" y="253" width="125" height="50" as="geometry" />
        </mxCell>
        <mxCell id="wg3PGn_0GkAtvqMJTAJF-37" value="&lt;b&gt;dummy&lt;/b&gt;" style="text;html=1;align=center;verticalAlign=middle;whiteSpace=wrap;rounded=0;fontSize=16;textShadow=1;aspect=fixed;fontFamily=HarmonyOS Sans;" vertex="1" parent="1">
          <mxGeometry x="237.5" y="290" width="125" height="50" as="geometry" />
        </mxCell>
        <mxCell id="wg3PGn_0GkAtvqMJTAJF-38" value="&lt;font style=&quot;font-size: 16px;&quot;&gt;&lt;b&gt;head&lt;/b&gt;&lt;/font&gt;" style="text;html=1;align=center;verticalAlign=middle;whiteSpace=wrap;rounded=0;fontSize=16;textShadow=1;aspect=fixed;fontFamily=HarmonyOS Sans;" vertex="1" parent="1">
          <mxGeometry x="337.5" y="290" width="125" height="50" as="geometry" />
        </mxCell>
        <mxCell id="wg3PGn_0GkAtvqMJTAJF-39" value="&lt;font style=&quot;font-size: 16px;&quot;&gt;&lt;b&gt;slow&lt;/b&gt;&lt;/font&gt;" style="text;html=1;align=center;verticalAlign=middle;whiteSpace=wrap;rounded=0;fontSize=16;textShadow=1;aspect=fixed;fontFamily=HarmonyOS Sans;" vertex="1" parent="1">
          <mxGeometry x="537.5" y="160" width="125" height="50" as="geometry" />
        </mxCell>
        <mxCell id="wg3PGn_0GkAtvqMJTAJF-40" value="&lt;span style=&quot;font-size: 20px;&quot;&gt;&lt;b&gt;返回dummy.next&lt;/b&gt;&lt;/span&gt;" style="text;html=1;align=center;verticalAlign=middle;whiteSpace=wrap;rounded=0;fontSize=16;textShadow=1;aspect=fixed;fontFamily=HarmonyOS Sans;" vertex="1" parent="1">
          <mxGeometry x="445" y="330" width="275" height="110" as="geometry" />
        </mxCell>
        <mxCell id="wg3PGn_0GkAtvqMJTAJF-41" value="&lt;b&gt;n = 2&lt;/b&gt;" style="text;html=1;align=center;verticalAlign=middle;whiteSpace=wrap;rounded=0;fontSize=16;textShadow=1;aspect=fixed;fontFamily=HarmonyOS Sans;" vertex="1" parent="1">
          <mxGeometry x="520" y="400" width="125" height="50" as="geometry" />
        </mxCell>
        <mxCell id="wg3PGn_0GkAtvqMJTAJF-42" value="" style="endArrow=classic;html=1;rounded=0;strokeWidth=2;entryX=0.5;entryY=0;entryDx=0;entryDy=0;fillColor=#f8cecc;strokeColor=#FF3333;" edge="1" parent="1">
          <mxGeometry width="50" height="50" relative="1" as="geometry">
            <mxPoint x="800" y="200" as="sourcePoint" />
            <mxPoint x="800" y="260" as="targetPoint" />
          </mxGeometry>
        </mxCell>
        <mxCell id="wg3PGn_0GkAtvqMJTAJF-43" value="&lt;font style=&quot;font-size: 16px;&quot;&gt;&lt;b&gt;fast&lt;/b&gt;&lt;/font&gt;" style="text;html=1;align=center;verticalAlign=middle;whiteSpace=wrap;rounded=0;fontSize=16;textShadow=1;aspect=fixed;fontFamily=HarmonyOS Sans;" vertex="1" parent="1">
          <mxGeometry x="737.5" y="160" width="125" height="50" as="geometry" />
        </mxCell>
        <mxCell id="wg3PGn_0GkAtvqMJTAJF-44" value="" style="endArrow=classic;html=1;rounded=0;strokeWidth=2;exitX=0.5;exitY=1;exitDx=0;exitDy=0;entryX=0.5;entryY=1;entryDx=0;entryDy=0;" edge="1" parent="1" source="wg3PGn_0GkAtvqMJTAJF-25" target="wg3PGn_0GkAtvqMJTAJF-27">
          <mxGeometry width="50" height="50" relative="1" as="geometry">
            <mxPoint x="500" y="300" as="sourcePoint" />
            <mxPoint x="700" y="300" as="targetPoint" />
            <Array as="points">
              <mxPoint x="600" y="360" />
              <mxPoint x="800" y="360" />
            </Array>
          </mxGeometry>
        </mxCell>
        <mxCell id="7EwuUeHy_DbLMMoYWyb2-1" value="" style="whiteSpace=wrap;html=1;aspect=fixed;fillColor=#FF0000;strokeColor=#FF0000;strokeWidth=2;dashed=1;sketch=1;curveFitting=1;jiggle=2;" vertex="1" parent="1">
          <mxGeometry x="248.5" y="228.5" width="103" height="103" as="geometry" />
        </mxCell>
        <mxCell id="7EwuUeHy_DbLMMoYWyb2-2" value="" style="whiteSpace=wrap;html=1;aspect=fixed;fillColor=#FF0000;strokeColor=#FF0000;strokeWidth=2;dashed=1;sketch=1;curveFitting=1;jiggle=2;" vertex="1" parent="1">
          <mxGeometry x="648.5" y="226.5" width="103" height="103" as="geometry" />
        </mxCell>
      </root>
    </mxGraphModel>
  </diagram>
</mxfile>
